<svg width="34" height="34" viewBox="0 0 34 34" fill="none" xmlns="http://www.w3.org/2000/svg">
<path d="M30.907 3.2035H21.7688V1.59076C21.7688 0.713602 21.0562 0 20.1804 0H13.8196C12.9437 0 12.2312 0.713602 12.2312 1.59076V3.20344H3.09298C2.65104 3.20344 2.29285 3.56163 2.29285 4.00357C2.29285 4.4455 2.65104 4.8037 3.09298 4.8037H4.57596L5.5872 31.1269C5.64909 32.7379 6.96054 34 8.57295 34H25.4271C27.0395 34 28.351 32.7379 28.4128 31.1268L29.424 4.80363H30.907C31.3488 4.80363 31.7071 4.44543 31.7071 4.0035C31.7071 3.5617 31.3489 3.2035 30.907 3.2035ZM13.8314 1.60019H20.1686V3.20344H13.8314V1.60019ZM26.8138 31.0654C26.785 31.8137 26.1759 32.3998 25.4271 32.3998H8.57295C7.82416 32.3998 7.21508 31.8136 7.18626 31.0654L6.17741 4.8037H27.8227L26.8138 31.0654Z" fill="white"/>
<path d="M12.1278 12.0574C12.1194 11.6208 11.763 11.2727 11.3281 11.2727C11.3229 11.2727 11.3176 11.2727 11.3125 11.2728C10.8707 11.2813 10.5194 11.6464 10.5279 12.0882L10.7789 25.1459C10.7873 25.5825 11.1438 25.9306 11.5786 25.9306C11.5838 25.9306 11.5891 25.9306 11.5943 25.9305C12.0361 25.922 12.3874 25.557 12.3789 25.1152L12.1278 12.0574Z" fill="#EDEDED"/>
<path d="M16.9998 11.2726C16.558 11.2726 16.1997 11.6308 16.1997 12.0728V25.1305C16.1997 25.5724 16.5579 25.9306 16.9998 25.9306C17.4418 25.9306 17.8 25.5724 17.8 25.1305V12.0728C17.8 11.6309 17.4418 11.2726 16.9998 11.2726Z" fill="#EDEDED"/>
<path d="M22.6873 11.2729C22.2472 11.2631 21.8804 11.6157 21.872 12.0575L21.6209 25.1152C21.6123 25.557 21.9637 25.922 22.4055 25.9305C22.4106 25.9306 22.416 25.9307 22.4211 25.9307C22.8558 25.9307 23.2124 25.5824 23.2208 25.1459L23.4719 12.0882C23.4804 11.6463 23.1292 11.2813 22.6873 11.2729Z" fill="#EDEDED"/>
</svg>
