<svg width="34" height="34" viewBox="0 0 34 34" fill="none" xmlns="http://www.w3.org/2000/svg">
<path d="M6.46 11.9C6.46 11.526 6.766 11.22 7.14 11.22H19.38C19.754 11.22 20.06 11.526 20.06 11.9C20.06 12.274 19.754 12.58 19.38 12.58H7.14C6.766 12.58 6.46 12.274 6.46 11.9ZM7.14 15.98H19.38C19.754 15.98 20.06 15.674 20.06 15.3C20.06 14.926 19.754 14.62 19.38 14.62H7.14C6.766 14.62 6.46 14.926 6.46 15.3C6.46 15.674 6.766 15.98 7.14 15.98ZM7.14 19.38H15.3C15.674 19.38 15.98 19.074 15.98 18.7C15.98 18.326 15.674 18.02 15.3 18.02H7.14C6.766 18.02 6.46 18.326 6.46 18.7C6.46 19.074 6.766 19.38 7.14 19.38ZM12.58 21.42H7.14C6.766 21.42 6.46 21.726 6.46 22.1C6.46 22.474 6.766 22.78 7.14 22.78H12.58C12.954 22.78 13.26 22.474 13.26 22.1C13.26 21.726 12.954 21.42 12.58 21.42ZM12.58 24.82H7.14C6.766 24.82 6.46 25.126 6.46 25.5C6.46 25.874 6.766 26.18 7.14 26.18H12.58C12.954 26.18 13.26 25.874 13.26 25.5C13.26 25.126 12.954 24.82 12.58 24.82ZM31.416 14.416L28.696 17.136L23.46 22.372V31.62C23.46 31.994 23.154 32.3 22.78 32.3H3.06C2.686 32.3 2.38 31.994 2.38 31.62V2.38C2.38 2.006 2.686 1.7 3.06 1.7H17.34C17.374 1.7 17.442 1.7 17.476 1.7C17.51 1.7 17.544 1.7 17.544 1.734H17.578C17.612 1.734 17.646 1.768 17.68 1.768H17.714C17.748 1.802 17.782 1.836 17.816 1.836L23.256 7.276C23.29 7.31 23.324 7.344 23.324 7.378C23.324 7.378 23.324 7.378 23.358 7.412C23.358 7.446 23.392 7.48 23.392 7.514V7.548C23.392 7.582 23.426 7.616 23.426 7.616C23.426 7.65 23.426 7.718 23.426 7.752V13.6L24.31 12.716L27.03 9.996C27.302 9.724 27.71 9.724 27.982 9.996L31.382 13.396C31.688 13.736 31.688 14.144 31.416 14.416ZM18.02 7.14H21.148L18.02 4.012V7.14ZM22.1 23.732L19.856 25.976C19.72 26.112 19.55 26.18 19.38 26.18H15.98C15.606 26.18 15.3 25.874 15.3 25.5V22.1C15.3 21.93 15.368 21.76 15.504 21.624L22.1 15.028V8.5H17.34C16.966 8.5 16.66 8.194 16.66 7.82V3.06H3.74V30.94H22.1V23.732ZM27.268 16.66L24.82 14.212L16.66 22.372V24.82H19.108L27.268 16.66ZM29.988 13.94L27.54 11.492L25.772 13.26L28.22 15.708L29.988 13.94Z" fill="white"/>
</svg>
