<svg width="45" height="45" viewBox="0 0 45 45" fill="none" xmlns="http://www.w3.org/2000/svg">
<g clip-path="url(#clip0)">
<path d="M42.4705 18.9712L42.5407 18.9865H12.4288L21.8949 9.49957C22.3584 9.0364 22.6127 8.40896 22.6127 7.75043C22.6127 7.09189 22.3584 6.46884 21.8949 6.00457L20.422 4.53091C19.9588 4.06774 19.3416 3.81165 18.6834 3.81165C18.0249 3.81165 17.4073 4.06591 16.9442 4.52908L0.717449 20.7543C0.252449 21.2193 -0.00181947 21.8387 9.80172e-06 22.4976C-0.00181947 23.1602 0.252449 23.7799 0.717449 24.2442L16.9442 40.4709C17.4073 40.9337 18.0245 41.1884 18.6834 41.1884C19.3416 41.1884 19.9588 40.9334 20.422 40.4709L21.8949 38.9973C22.3584 38.5348 22.6127 37.9173 22.6127 37.2587C22.6127 36.6006 22.3584 36.0156 21.8949 35.5527L12.322 26.0127H42.5042C43.8604 26.0127 45 24.8438 45 23.4884V21.4041C45 20.0486 43.8267 18.9712 42.4705 18.9712Z" fill="#EFEFEF" fill-opacity="0.8"/>
</g>
<defs>
<clipPath id="clip0">
<rect width="45" height="45" fill="white"/>
</clipPath>
</defs>
</svg>
