<svg width="53" height="53" viewBox="0 0 53 53" fill="none" xmlns="http://www.w3.org/2000/svg">
<g opacity="0.8">
<path d="M48.7609 13.6917H41.2313L37.698 4.85834H15.302L11.7687 13.6917H10.6V9.275H5.3V13.6917H4.23912C1.90093 13.6917 0 15.5926 0 17.9308V43.8725C0 46.2266 1.91507 48.1417 4.26915 48.1417H48.7309C51.0849 48.1417 53 46.2266 53 43.8725V17.9308C53 15.5926 51.0991 13.6917 48.7609 13.6917ZM7.06667 11.0417H8.83333V13.6917H7.06667V11.0417ZM51.2333 43.8725C51.2333 45.2532 50.1106 46.375 48.7309 46.375H4.26915C2.88938 46.375 1.76667 45.2523 1.76667 43.8725V17.9308C1.76667 16.5678 2.87613 15.4583 4.23912 15.4583H5.3H10.6H12.9647L16.498 6.625H36.502L40.0353 15.4583H48.7609C50.1239 15.4583 51.2333 16.5678 51.2333 17.9308V43.8725Z" fill="#EFEFEF"/>
<path d="M26.5 12.8083C17.7329 12.8083 10.6 19.9413 10.6 28.7084C10.6 37.4754 17.7329 44.6084 26.5 44.6084C35.2671 44.6084 42.4 37.4754 42.4 28.7084C42.4 19.9413 35.2671 12.8083 26.5 12.8083ZM26.5 42.8417C18.7072 42.8417 12.3666 36.5011 12.3666 28.7084C12.3666 20.9156 18.7072 14.575 26.5 14.575C34.2927 14.575 40.6333 20.9156 40.6333 28.7084C40.6333 36.5011 34.2927 42.8417 26.5 42.8417Z" fill="#EFEFEF"/>
<path d="M26.5 18.1083C20.655 18.1083 15.9 22.8633 15.9 28.7083C15.9 34.5534 20.655 39.3083 26.5 39.3083C32.345 39.3083 37.1 34.5534 37.1 28.7083C37.1 22.8633 32.345 18.1083 26.5 18.1083ZM26.5 37.5417C21.6293 37.5417 17.6667 33.579 17.6667 28.7083C17.6667 23.8376 21.6293 19.875 26.5 19.875C31.3707 19.875 35.3334 23.8376 35.3334 28.7083C35.3334 33.579 31.3707 37.5417 26.5 37.5417Z" fill="#EFEFEF"/>
<path d="M45.9334 17.225C43.9847 17.225 42.4 18.8097 42.4 20.7583C42.4 22.7069 43.9847 24.2916 45.9334 24.2916C47.882 24.2916 49.4667 22.7069 49.4667 20.7583C49.4667 18.8097 47.882 17.225 45.9334 17.225ZM45.9334 22.525C44.959 22.525 44.1667 21.7326 44.1667 20.7583C44.1667 19.784 44.959 18.9916 45.9334 18.9916C46.9077 18.9916 47.7 19.784 47.7 20.7583C47.7 21.7326 46.9077 22.525 45.9334 22.525Z" fill="#EFEFEF"/>
</g>
</svg>
