<svg width="35" height="35" viewBox="0 0 35 35" fill="none" xmlns="http://www.w3.org/2000/svg">
<g clip-path="url(#clip0)">
<path d="M31.4697 23.5352H30.4443C28.4142 23.5352 26.7627 21.8836 26.7627 19.8535V11.6134C26.7627 8.15261 24.2039 5.27851 20.8789 4.7829V3.37894C20.8789 1.5158 19.3631 0 17.5 0C15.6369 0 14.1211 1.5158 14.1211 3.37894V4.7829C10.7961 5.27851 8.23729 8.15261 8.23729 11.6134V19.8535C8.23729 21.8836 6.58573 23.5352 4.55566 23.5352H3.53027V30.2929H14.1211V31.6211C14.1211 33.4842 15.6369 35 17.5 35C19.3631 35 20.8789 33.4842 20.8789 31.6211V30.2929H31.4698V23.5352H31.4697ZM17.5 2.05078C18.2323 2.05078 18.8281 2.6466 18.8281 3.37894V4.70709H16.1719V3.37894C16.1718 2.6466 16.7677 2.05078 17.5 2.05078ZM10.2881 19.8535V11.6134C10.2881 8.93601 12.4663 6.75787 15.1436 6.75787H19.8564C22.5338 6.75787 24.7119 8.93601 24.7119 11.6134V19.8535C24.7119 21.2542 25.2176 22.5385 26.055 23.5352H8.94502C9.78242 22.5384 10.2881 21.2542 10.2881 19.8535ZM18.8281 31.6211C18.8281 32.3534 18.2323 32.9492 17.4999 32.9492C16.7676 32.9492 16.1718 32.3534 16.1718 31.6211V30.2929H18.828V31.6211H18.8281ZM29.4189 28.2422H5.58105V25.586H29.4189V28.2422Z" fill="#EFEFEF"/>
</g>
<defs>
<clipPath id="clip0">
<rect width="35" height="35" fill="white"/>
</clipPath>
</defs>
</svg>
